<svg width="24" height="25" viewBox="0 0 24 25" fill="none" xmlns="http://www.w3.org/2000/svg">
<path d="M13.8487 12.0352L9.74867 16.1352L10.6667 17.0865L15.718 12.0352L10.6667 6.98382L9.74867 7.93516L13.8487 12.0352ZM12.0043 24.0352C10.345 24.0352 8.78489 23.7203 7.324 23.0905C5.86333 22.4607 4.59267 21.606 3.512 20.5265C2.43133 19.4469 1.57589 18.1774 0.945666 16.7178C0.315222 15.2585 0 13.699 0 12.0395C0 10.3802 0.314889 8.82004 0.944667 7.35916C1.57444 5.89849 2.42911 4.62782 3.50867 3.54716C4.58822 2.46649 5.85778 1.61104 7.31733 0.980823C8.77667 0.350378 10.3361 0.0351562 11.9957 0.0351562C13.655 0.0351562 15.2151 0.350046 16.676 0.979824C18.1367 1.6096 19.4073 2.46427 20.488 3.54382C21.5687 4.62338 22.4241 5.89293 23.0543 7.35249C23.6848 8.81182 24 10.3713 24 12.0308C24 13.6902 23.6851 15.2503 23.0553 16.7112C22.4256 18.1718 21.5709 19.4425 20.4913 20.5232C19.4118 21.6038 18.1422 22.4593 16.6827 23.0895C15.2233 23.7199 13.6639 24.0352 12.0043 24.0352Z" fill="#5CBFFF"/>
</svg>
