<svg width="92" height="92" viewBox="0 0 92 92" fill="none" xmlns="http://www.w3.org/2000/svg">
<g filter="url(#filter0_d_443_1057)">
<circle cx="46" cy="40" r="34" fill="white"/>
</g>
<path d="M57.7071 39.2929C58.0976 39.6834 58.0976 40.3166 57.7071 40.7071L51.3431 47.0711C50.9526 47.4616 50.3195 47.4616 49.9289 47.0711C49.5384 46.6805 49.5384 46.0474 49.9289 45.6569L55.5858 40L49.9289 34.3431C49.5384 33.9526 49.5384 33.3195 49.9289 32.9289C50.3195 32.5384 50.9526 32.5384 51.3431 32.9289L57.7071 39.2929ZM33 40L33 39L57 39L57 40L57 41L33 41L33 40Z" fill="#4D4D4D"/>
<defs>
<filter id="filter0_d_443_1057" x="0" y="0" width="92" height="92" filterUnits="userSpaceOnUse" color-interpolation-filters="sRGB">
<feFlood flood-opacity="0" result="BackgroundImageFix"/>
<feColorMatrix in="SourceAlpha" type="matrix" values="0 0 0 0 0 0 0 0 0 0 0 0 0 0 0 0 0 0 127 0" result="hardAlpha"/>
<feOffset dy="6"/>
<feGaussianBlur stdDeviation="6"/>
<feComposite in2="hardAlpha" operator="out"/>
<feColorMatrix type="matrix" values="0 0 0 0 0.670588 0 0 0 0 0.745098 0 0 0 0 0.819608 0 0 0 0.3 0"/>
<feBlend mode="normal" in2="BackgroundImageFix" result="effect1_dropShadow_443_1057"/>
<feBlend mode="normal" in="SourceGraphic" in2="effect1_dropShadow_443_1057" result="shape"/>
</filter>
</defs>
</svg>
