<svg width="132" height="24" viewBox="0 0 132 24" fill="none" xmlns="http://www.w3.org/2000/svg">
<path d="M22.2606 6.63225e-07C22.1695 6.63225e-07 22.0784 6.63507e-07 21.9873 0.0100823C21.1018 0.0538563 20.241 0.314819 19.4813 0.769771C18.7215 1.22472 18.0865 1.85957 17.6325 2.61787L12.7041 10.8378C12.682 10.8758 12.6503 10.9074 12.6121 10.9293C12.5739 10.9513 12.5305 10.9628 12.4864 10.9628C12.4423 10.9628 12.399 10.9513 12.3608 10.9293C12.3226 10.9074 12.2908 10.8758 12.2688 10.8378L7.42471 2.03985C7.08319 1.42175 6.58124 0.906353 5.9713 0.547519C5.36137 0.188685 4.66585 -0.000408692 3.95744 6.63225e-07C3.43082 -0.000113841 2.90948 0.104466 2.42398 0.307611C1.93848 0.510755 1.49858 0.808375 1.13008 1.18303C0.761573 1.55768 0.471879 2.00182 0.277975 2.48941C0.0840713 2.97701 -0.01014 3.49825 0.000863922 4.02257C0.000863922 4.03602 0.000863922 4.04946 0.000863922 4.0629V22.6837C0.000863922 22.849 0.0335515 23.0126 0.0970605 23.1653C0.160569 23.318 0.253656 23.4567 0.371005 23.5736C0.488354 23.6905 0.627668 23.7832 0.780992 23.8464C0.934316 23.9097 1.09865 23.9422 1.2646 23.9422C1.43085 23.9426 1.59554 23.9104 1.74925 23.8474C1.90297 23.7843 2.04268 23.6917 2.16039 23.5748C2.27809 23.4579 2.37148 23.319 2.4352 23.1661C2.49892 23.0132 2.53172 22.8492 2.53172 22.6837V10.4916C2.53202 10.4363 2.55068 10.3827 2.58479 10.3391C2.6189 10.2955 2.66655 10.2644 2.7203 10.2506C2.77404 10.2367 2.83087 10.241 2.88191 10.2628C2.93295 10.2845 2.97534 10.3224 3.00246 10.3706L5.93825 15.6937C6.27866 16.3117 6.77966 16.8271 7.38878 17.186C7.9979 17.5448 8.69273 17.734 9.40046 17.7336H9.44939C9.95823 17.7336 10.462 17.6327 10.9312 17.4368C11.4005 17.241 11.826 16.954 12.1827 16.5927L12.2266 16.5473L12.3228 16.4448C12.5614 16.1804 12.7645 15.8861 12.9268 15.5694L17.2849 8.29887C17.3126 8.25134 17.3553 8.21429 17.4064 8.1935C17.4575 8.1727 17.514 8.16933 17.5672 8.18392C17.6204 8.19851 17.6672 8.23023 17.7004 8.27412C17.7336 8.31802 17.7512 8.37163 17.7506 8.42657V19.4542C17.7506 20.0437 17.8672 20.6275 18.0938 21.1721C18.3204 21.7167 18.6525 22.2115 19.0712 22.6283C19.4898 23.0451 19.9868 23.3756 20.5338 23.6011C21.0807 23.8265 21.6669 23.9424 22.2589 23.9422C23.4541 23.9422 24.6004 23.4694 25.4456 22.6277C26.2907 21.786 26.7655 20.6445 26.7655 19.4542V4.48969C26.7655 3.29953 26.291 2.15807 25.4463 1.31619C24.6015 0.474304 23.4557 0.0008915 22.2606 6.63225e-07Z" fill="#4D4D4D"/>
<path d="M41.0233 1.17968e-07C38.6455 -0.000332219 36.3211 0.701528 34.344 2.01682C32.3668 3.33211 30.8257 5.20176 29.9156 7.38931C29.0054 9.57687 28.7671 11.9841 29.2308 14.3065C29.6945 16.629 30.8393 18.7623 32.5204 20.4368C34.2016 22.1113 36.3437 23.2516 38.6757 23.7137C41.0077 24.1758 43.4249 23.9388 45.6216 23.0327C47.8184 22.1267 49.696 20.5922 51.017 18.6234C52.338 16.6546 53.0431 14.3398 53.0431 11.9719C53.0434 10.3998 52.7326 8.8431 52.1287 7.39061C51.5247 5.93811 50.6394 4.61832 49.5232 3.5066C48.407 2.39488 47.0819 1.51301 45.6235 0.911343C44.165 0.309676 42.6019 1.0248e-07 41.0233 1.17968e-07ZM47.7351 9.52042L38.5616 18.651C38.2825 18.9289 37.9512 19.1494 37.5866 19.2998C37.222 19.4502 36.8312 19.5276 36.4365 19.5276C35.6394 19.5276 34.875 19.2123 34.3114 18.651C34.0324 18.3731 33.811 18.0432 33.66 17.6801C33.5089 17.3169 33.4312 16.9278 33.4312 16.5347C33.4312 15.741 33.7478 14.9797 34.3114 14.4184L43.4849 5.28278C44.0485 4.7215 44.813 4.40618 45.61 4.40618C46.4071 4.40618 47.1715 4.7215 47.7351 5.28278C48.2987 5.84406 48.6153 6.60531 48.6153 7.39908C48.6153 8.19285 48.2987 8.95411 47.7351 9.51538V9.52042Z" fill="#4D4D4D"/>
<path d="M67.2986 1.17968e-07C64.9209 -0.000332219 62.5965 0.701528 60.6194 2.01682C58.6422 3.33211 57.1011 5.20176 56.191 7.38931C55.2808 9.57687 55.0425 11.9841 55.5062 14.3065C55.9698 16.629 57.1147 18.7623 58.7958 20.4368C60.477 22.1113 62.619 23.2516 64.9511 23.7137C67.2831 24.1758 69.7003 23.9388 71.897 23.0327C74.0938 22.1267 75.9714 20.5922 77.2924 18.6234C78.6134 16.6546 79.3185 14.3398 79.3185 11.9719C79.3185 8.79708 78.0522 5.75222 75.7981 3.50709C73.544 1.26197 70.4867 0.000445713 67.2986 1.17968e-07ZM74.0105 9.52042L64.837 18.651C64.5579 18.9289 64.2266 19.1494 63.862 19.2998C63.4974 19.4502 63.1066 19.5276 62.7119 19.5276C62.3172 19.5276 61.9264 19.4502 61.5618 19.2998C61.1972 19.1494 60.8659 18.9289 60.5868 18.651C60.3077 18.3731 60.0864 18.0432 59.9353 17.6801C59.7843 17.3169 59.7066 16.9278 59.7066 16.5347C59.7066 16.1417 59.7843 15.7525 59.9353 15.3894C60.0864 15.0263 60.3077 14.6963 60.5868 14.4184L69.7603 5.28278C70.3239 4.7215 71.0883 4.40618 71.8854 4.40618C72.6825 4.40618 73.4469 4.7215 74.0105 5.28278C74.5741 5.84406 74.8907 6.60531 74.8907 7.39908C74.8907 8.19285 74.5741 8.95411 74.0105 9.51538V9.52042Z" fill="#4D4D4D"/>
<path d="M93.5743 0H86.4204C85.1297 -7.72158e-08 83.8919 0.510496 82.979 1.41923C82.0662 2.32797 81.5532 3.56054 81.5527 4.84591V19.0929C81.5527 20.3786 82.0656 21.6116 82.9784 22.5207C83.8913 23.4298 85.1294 23.9405 86.4204 23.9405H93.5743C96.7622 23.9405 99.8195 22.6794 102.074 20.4345C104.328 18.1897 105.594 15.145 105.594 11.9703C105.594 8.79555 104.328 5.75087 102.074 3.50601C99.8195 1.26115 96.7622 0 93.5743 0ZM99.9048 9.8464L89.3528 20.3565C88.7834 20.8841 88.0307 21.1712 87.253 21.1576C86.4754 21.1439 85.7333 20.8305 85.1829 20.2832C84.6325 19.7359 84.3166 18.9974 84.3016 18.223C84.2867 17.4486 84.5738 16.6986 85.1027 16.1306L95.6547 5.62219C95.9286 5.32486 96.2602 5.08578 96.6293 4.91934C96.9985 4.7529 97.3976 4.66253 97.8027 4.65368C98.2079 4.64482 98.6106 4.71765 98.9867 4.86779C99.3629 5.01793 99.7046 5.24229 99.9914 5.52735C100.278 5.81242 100.504 6.15232 100.656 6.5266C100.807 6.90087 100.881 7.3018 100.873 7.70527C100.865 8.10874 100.775 8.50641 100.609 8.87437C100.442 9.24232 100.203 9.57296 99.9048 9.8464Z" fill="#4D4D4D"/>
<path d="M128.531 15.2406L129.092 14.6895C130.326 13.5055 131.17 11.9771 131.514 10.3057C131.857 8.63433 131.684 6.89847 131.018 5.32698C130.386 3.74075 129.286 2.38252 127.864 1.43157C126.441 0.480619 124.762 -0.0183521 123.049 0.000516009H112.696C111.405 0.000516009 110.167 0.511242 109.254 1.42034C108.341 2.32944 107.828 3.56244 107.828 4.8481V20.0915C107.828 20.5974 107.928 21.0984 108.123 21.5657C108.317 22.0331 108.602 22.4577 108.961 22.8153C109.321 23.173 109.747 23.4566 110.217 23.65C110.686 23.8435 111.189 23.9429 111.697 23.9427H111.802C111.848 23.9425 111.895 23.9397 111.942 23.9343C112.923 23.8724 113.843 23.4406 114.516 22.7268C115.189 22.0129 115.564 21.0706 115.564 20.0915V6.0495C115.564 5.10103 115.942 4.19138 116.616 3.52056C117.289 2.84973 118.202 2.47264 119.155 2.4722H123.05C126.087 2.4722 127.975 4.43308 128.73 6.26793C129.484 8.10279 129.521 10.8181 127.358 12.9403L126.783 13.5049L124.675 11.4012C123.921 10.665 122.905 10.255 121.849 10.2603C120.793 10.2656 119.781 10.6858 119.035 11.4295C118.288 12.1733 117.866 13.1805 117.86 14.2324C117.855 15.2842 118.267 16.2956 119.006 17.0469L121.068 19.1002L118.308 21.8088C117.547 22.5548 117.727 23.5143 118.733 23.8688C118.952 23.9476 119.19 23.9629 119.418 23.9129C119.646 23.863 119.856 23.7498 120.022 23.5865L122.819 20.8443L124.756 22.7733C125.126 23.1562 125.568 23.4619 126.057 23.6725C126.547 23.8832 127.074 23.9944 127.607 23.9998C128.14 24.0052 128.669 23.9046 129.162 23.7039C129.656 23.5032 130.105 23.2065 130.482 22.8311C130.859 22.4557 131.157 22.0091 131.359 21.5176C131.56 21.026 131.661 20.4993 131.656 19.9684C131.651 19.4374 131.539 18.9128 131.328 18.4253C131.117 17.9378 130.81 17.4972 130.425 17.1292L128.531 15.2406Z" fill="#4D4D4D"/>
</svg>
