<svg width="16" height="8" viewBox="0 0 16 8" fill="none" xmlns="http://www.w3.org/2000/svg">
<path d="M8.0239 7.65904C7.75565 7.65942 7.49665 7.56429 7.29635 7.39179L0.748419 1.84981C0.640933 1.75745 0.553317 1.64554 0.490575 1.52045C0.427834 1.39536 0.391194 1.25955 0.382749 1.12077C0.374304 0.981991 0.39422 0.842965 0.441357 0.711627C0.488494 0.580289 0.561932 0.459208 0.657475 0.355305C0.753018 0.251402 0.868797 0.166711 0.9982 0.106061C1.1276 0.0454113 1.2681 0.00999 1.41166 0.00182661C1.55522 -0.00633678 1.69904 0.0129174 1.83491 0.0584833C1.97078 0.104049 2.09603 0.175034 2.20352 0.267393L8.75145 5.80937C8.85989 5.89958 8.94879 6.00964 9.01302 6.13322C9.07726 6.25679 9.11555 6.39143 9.12569 6.52938C9.13584 6.66733 9.11763 6.80586 9.07213 6.93697C9.02663 7.06809 8.95473 7.1892 8.86058 7.29333C8.75636 7.40866 8.62771 7.501 8.48336 7.5641C8.33901 7.62719 8.18232 7.65957 8.0239 7.65904Z" fill="white"/>
<path d="M8.02383 7.65904C7.80085 7.661 7.5826 7.59688 7.39845 7.47531C7.21431 7.35374 7.07311 7.18056 6.99386 6.97907C6.9146 6.77758 6.90111 6.55747 6.95518 6.34834C7.00925 6.13922 7.12829 5.95112 7.29629 5.80937L13.8442 0.267393C13.9517 0.175034 14.077 0.104049 14.2128 0.0584833C14.3487 0.0129174 14.4925 -0.00633678 14.6361 0.00182661C14.7796 0.00999 14.9201 0.0454113 15.0495 0.106061C15.1789 0.166711 15.2947 0.251402 15.3903 0.355305C15.4858 0.459208 15.5592 0.580289 15.6064 0.711627C15.6535 0.842964 15.6734 0.981991 15.665 1.12077C15.6565 1.25955 15.6199 1.39536 15.5572 1.52045C15.4944 1.64554 15.4068 1.75745 15.2993 1.84981L8.75138 7.39179C8.5522 7.56604 8.29247 7.66145 8.02383 7.65904Z" fill="white"/>
</svg>
