<svg width="33" height="32" viewBox="0 0 33 32" fill="none" xmlns="http://www.w3.org/2000/svg">
<mask id="mask0_565_2841" style="mask-type:alpha" maskUnits="userSpaceOnUse" x="0" y="0" width="33" height="32">
<rect x="32.207" width="32" height="32" transform="rotate(90 32.207 0)" fill="#D9D9D9"/>
</mask>
<g mask="url(#mask0_565_2841)">
<path d="M16.7656 17.5046L12.6656 13.4046L11.7143 14.3226L16.7656 19.3739L21.817 14.3226L20.8656 13.4046L16.7656 17.5046ZM4.76563 15.6603C4.76563 14.0009 5.08051 12.4408 5.71029 10.9799C6.34007 9.51928 7.19474 8.24861 8.27429 7.16794C9.35385 6.08728 10.6234 5.23183 12.083 4.60161C13.5423 3.97117 15.1017 3.65594 16.7613 3.65594C18.4206 3.65594 19.9807 3.97083 21.4416 4.60061C22.9023 5.23039 24.173 6.08506 25.2536 7.16461C26.3343 8.24417 27.1897 9.51372 27.82 10.9733C28.4504 12.4326 28.7656 13.9921 28.7656 15.6516C28.7656 17.3109 28.4507 18.8711 27.821 20.3319C27.1912 21.7926 26.3365 23.0633 25.257 24.1439C24.1774 25.2246 22.9078 26.0801 21.4483 26.7103C19.989 27.3407 18.4295 27.6559 16.77 27.6559C15.1106 27.6559 13.5505 27.3411 12.0896 26.7113C10.629 26.0815 9.35829 25.2268 8.27763 24.1473C7.19696 23.0677 6.34151 21.7982 5.71129 20.3386C5.08085 18.8793 4.76563 17.3198 4.76563 15.6603Z" fill="#ABBED1"/>
</g>
</svg>
